<svg xmlns="http://www.w3.org/2000/svg" xmlns:xlink="http://www.w3.org/1999/xlink" width="147.191" height="22.836" viewBox="0 0 147.191 22.836"><defs><clipPath id="a"><rect width="147.191" height="22.836" fill="none"/></clipPath></defs><g transform="translate(0 0)"><g transform="translate(0 0)" clip-path="url(#a)"><path d="M42.115,1.923A6.992,6.992,0,0,0,39.541.549,12.924,12.924,0,0,0,35.96.122H30.753V18.431h4.414a17.611,17.611,0,0,0,4.106-.351,7.623,7.623,0,0,0,2.49-1.172,8.436,8.436,0,0,0,2.688-3.252A10.184,10.184,0,0,0,45.4,9.239a9.869,9.869,0,0,0-.861-4.084,9.085,9.085,0,0,0-2.424-3.232m1.218,7.266A7.616,7.616,0,0,1,41.5,14.642a6.936,6.936,0,0,1-5.242,1.92h-3.6V2.016h3.176a11.583,11.583,0,0,1,3.146.326A5.213,5.213,0,0,1,40.921,3.43a6.7,6.7,0,0,1,1.787,2.5,8.39,8.39,0,0,1,.625,3.258M32.579,1.935h3.257a17.866,17.866,0,0,1,1.794.08,17.866,17.866,0,0,0-1.794-.08Zm5.332.111c.1.013.193.026.285.041-.092-.015-.187-.028-.285-.041m.346.05a6.158,6.158,0,0,1,.748.169c.123.038.243.081.362.127-.119-.046-.239-.089-.362-.127a6.158,6.158,0,0,0-.748-.169M32.579,16.642h3.677a7.954,7.954,0,0,0,3.984-.919,7.954,7.954,0,0,1-3.984.919Zm8.4-13.274a5.59,5.59,0,0,0-.453-.359,5.59,5.59,0,0,1,.453.359,6.632,6.632,0,0,1,1.458,1.807,6.632,6.632,0,0,0-1.458-1.807m-.1-2.191a6.736,6.736,0,0,1,1.116.75,6.736,6.736,0,0,0-1.116-.75M30.833.2h0v0ZM35.167,18.35h0q.345,0,.668-.005-.324.006-.668.005m1.6-.035c.182-.009.357-.018.525-.031-.168.013-.343.022-.525.031m7.613-4.7a8.32,8.32,0,0,1-2.662,3.222A7.591,7.591,0,0,1,39.9,17.8c-.213.077-.43.145-.65.2s-.452.1-.718.147c.267-.043.506-.091.718-.147s.438-.126.65-.2a7.591,7.591,0,0,0,1.814-.956,8.32,8.32,0,0,0,2.662-3.222,9.366,9.366,0,0,0,.592-1.612,9.366,9.366,0,0,1-.592,1.612m.692-2.019c.008-.04.017-.079.025-.119-.008.04-.017.079-.025.119m.109-.569c0-.029.01-.059.014-.089,0,.03-.01.06-.014.089m-.714-5.843A9.021,9.021,0,0,0,42.62,2.5a9.021,9.021,0,0,1,1.846,2.692c.071.158.138.318.2.478-.063-.161-.129-.32-.2-.478" transform="translate(-8.098 -0.032)" fill="#fff"/><path d="M59.337,5.553a6.626,6.626,0,0,0-4.924,2.168,7.3,7.3,0,0,0-2.078,5.216,7.2,7.2,0,0,0,2.072,5.16,6.8,6.8,0,0,0,5.066,2.15,6.661,6.661,0,0,0,5.011-2.194,7.473,7.473,0,0,0,2.065-5.291,7,7,0,0,0-2.11-5.08,6.95,6.95,0,0,0-5.1-2.13M55.8,16.827a5.533,5.533,0,0,1-1.477-3.914A5.571,5.571,0,0,1,55.8,8.992a4.651,4.651,0,0,1,3.514-1.582,5.014,5.014,0,0,1,3.762,1.54,5.472,5.472,0,0,1,1.482,3.938,5.6,5.6,0,0,1-1.464,3.94A4.76,4.76,0,0,1,59.473,18.4,4.838,4.838,0,0,1,55.8,16.827m-1.557-3.914a5.693,5.693,0,0,0,.989,3.342,5.693,5.693,0,0,1-.989-3.342,6.761,6.761,0,0,1,.088-1.1,6.761,6.761,0,0,0-.088,1.1m5.09-7.28h0a6.914,6.914,0,0,0-1.028.076,6.914,6.914,0,0,1,1.028-.076m-3.026.734c.133-.071.267-.138.4-.2-.136.06-.27.127-.4.2m-1.84,1.409c.164-.17.331-.329.5-.48-.17.15-.337.309-.5.48a7.247,7.247,0,0,0-1.662,2.688,7.247,7.247,0,0,1,1.662-2.688M55.737,6.71a7.286,7.286,0,0,0-.694.526,7.286,7.286,0,0,1,.694-.526M54.465,18.042a7.89,7.89,0,0,1-.7-.827,7.89,7.89,0,0,0,.7.827,6.814,6.814,0,0,0,2.593,1.719,6.814,6.814,0,0,1-2.593-1.719m5.009,2.125h0a6.928,6.928,0,0,0,1.733-.212,6.928,6.928,0,0,1-1.733.212m2.379-.415a6.161,6.161,0,0,0,.62-.271,6.161,6.161,0,0,1-.62.271M64.426,18a7.658,7.658,0,0,1-.8.737,6.7,6.7,0,0,1-.857.584,6.7,6.7,0,0,0,.857-.584,7.658,7.658,0,0,0,.8-.737,7.876,7.876,0,0,0,.694-.845,7.876,7.876,0,0,1-.694.845m.894-1.141c.127-.2.245-.4.351-.612-.107.208-.224.413-.351.612m1.149-4.094a7.644,7.644,0,0,1-.646,3.165,7.656,7.656,0,0,0,.646-3.165,7.1,7.1,0,0,0-.4-2.4,7.1,7.1,0,0,1,.4,2.4" transform="translate(-13.782 -1.463)" fill="#fff"/><path d="M76.8,4.559V.122H74.89V4.559H72.3V6.49H74.89V18.43H76.8V6.49h2.588V4.559H76.8Zm-.08.08h0v0Zm-1.747,0h0v0Zm0,1.77h0v0ZM76.717,18.35h0v0Z" transform="translate(-19.04 -0.032)" fill="#fff"/><path d="M88.7,12.235c-.22-.094-.65-.237-1.278-.427A6.123,6.123,0,0,1,86,11.218a2.108,2.108,0,0,1-.753-.726A2,2,0,0,1,85.02,9.5a1.908,1.908,0,0,1,.546-1.383,1.85,1.85,0,0,1,1.368-.555,2,2,0,0,1,1.448.513,2.147,2.147,0,0,1,.589,1.456l.005.075H91l0-.084a4.027,4.027,0,0,0-1.126-2.834,3.905,3.905,0,0,0-2.829-1.02,3.973,3.973,0,0,0-2.86,1.144A3.752,3.752,0,0,0,83,9.6a3.567,3.567,0,0,0,.711,2.319,7.106,7.106,0,0,0,2.995,1.683,4.951,4.951,0,0,1,1.918,1.1,2.205,2.205,0,0,1,.518,1.529,2.091,2.091,0,0,1-.656,1.575,2.314,2.314,0,0,1-1.654.626,2.234,2.234,0,0,1-1.747-.814,3.062,3.062,0,0,1-.711-2.072v-.13H82.418l0,.083a5.164,5.164,0,0,0,1.246,3.462,4.084,4.084,0,0,0,3.142,1.291,4.441,4.441,0,0,0,3.163-1.181,3.957,3.957,0,0,0,1.251-2.989,4.23,4.23,0,0,0-.614-2.362A4.2,4.2,0,0,0,88.7,12.235m.276.217c-.1-.049-.2-.1-.308-.143-.043-.018-.1-.04-.158-.062.061.022.114.043.158.062.106.046.209.094.308.143m-.511,1.988-.035-.029.035.029m-.793-.507q-.285-.145-.631-.285.346.14.631.285m-1.716-2.646a3.726,3.726,0,0,0,.435.23c.152.069.322.137.508.2-.186-.066-.357-.135-.508-.2a3.726,3.726,0,0,1-.435-.23c-.091-.056-.175-.114-.253-.174.078.06.163.118.253.174m-.78-.754a1.537,1.537,0,0,0,.137.2,1.537,1.537,0,0,1-.137-.2,1.6,1.6,0,0,1-.1-.221,1.6,1.6,0,0,0,.1.221m.8-2.821a1.938,1.938,0,0,0-.468.354A1.972,1.972,0,0,0,84.94,9.5a2.885,2.885,0,0,0,.014.293A2.885,2.885,0,0,1,84.94,9.5a1.972,1.972,0,0,1,.569-1.439,1.924,1.924,0,0,1,.468-.354,1.863,1.863,0,0,1,.547-.19,2.23,2.23,0,0,1,.41-.036,2.23,2.23,0,0,0-.41.036,1.863,1.863,0,0,0-.547.19m2.461.309a1.746,1.746,0,0,0-.379-.276,1.746,1.746,0,0,1,.379.276,2.007,2.007,0,0,1,.551,1.05,2.007,2.007,0,0,0-.551-1.05m.613,1.509h1.87a5.6,5.6,0,0,0-.091-.807,5.6,5.6,0,0,1,.091.807ZM87.045,5.752a4.485,4.485,0,0,1,1.737.315,3.316,3.316,0,0,1,1.036.681A3.467,3.467,0,0,1,90.731,8.3c.032.111.06.225.084.341-.024-.116-.052-.231-.084-.341a3.467,3.467,0,0,0-.912-1.554,3.316,3.316,0,0,0-1.036-.681,4.485,4.485,0,0,0-1.737-.315,4.3,4.3,0,0,0-.982.11,4.3,4.3,0,0,1,.982-.11m-1.7.355a3.719,3.719,0,0,0-.335.175,3.719,3.719,0,0,1,.335-.175m-1.9,1.842a3.838,3.838,0,0,1,.792-1.075,4.116,4.116,0,0,1,.609-.491,4.116,4.116,0,0,0-.609.491,3.852,3.852,0,0,0-.792,1.075,3.559,3.559,0,0,0-.144.341,3.559,3.559,0,0,1,.144-.341m5.775,8.285a2.316,2.316,0,0,0-.469-1.5,2.316,2.316,0,0,1,.469,1.5,2.289,2.289,0,0,1-.215,1,2.289,2.289,0,0,0,.215-1m-.241-3.779c.087.043.171.089.253.136-.082-.046-.166-.092-.253-.136m-3.957,5.219a2.357,2.357,0,0,0,1.12.745,2.357,2.357,0,0,1-1.12-.745,2.852,2.852,0,0,1-.5-.821c-.021-.053-.041-.108-.059-.164.018.055.038.111.059.164a2.852,2.852,0,0,0,.5.821m-1.3,1.234a4.715,4.715,0,0,1-1.164-2.636,4.715,4.715,0,0,0,1.164,2.636,3.835,3.835,0,0,0,.8.667,3.835,3.835,0,0,1-.8-.667m1.353.949a3.96,3.96,0,0,0,.4.138,3.96,3.96,0,0,1-.4-.138m4.838-.843c-.051.049-.1.1-.155.141a4.1,4.1,0,0,1-1.042.652,4.793,4.793,0,0,1-1.91.366,4.793,4.793,0,0,0,1.91-.366,4.1,4.1,0,0,0,1.042-.652c.053-.046.1-.092.155-.141s.1-.1.147-.145c-.047.049-.1.1-.147.145m.149-.147a3.862,3.862,0,0,0,1.077-2.782,4.132,4.132,0,0,0-.6-2.318,3.708,3.708,0,0,0-1.237-1.135,3.708,3.708,0,0,1,1.237,1.135,4.132,4.132,0,0,1,.6,2.318,3.862,3.862,0,0,1-1.077,2.782" transform="translate(-21.704 -1.494)" fill="#fff"/><path d="M108.28,6.038h-.08V8.073a5.994,5.994,0,0,0-2.058-1.684,6.416,6.416,0,0,0-2.877-.65,6.962,6.962,0,0,0-5.151,2.094,7.151,7.151,0,0,0-2.06,5.2,7.15,7.15,0,0,0,2.016,5.147,6.759,6.759,0,0,0,5.048,2.088,6.941,6.941,0,0,0,2.981-.643,5.929,5.929,0,0,0,2.1-1.635v6.353h1.919V6.038H108.28ZM97.94,13.112a6.373,6.373,0,0,1,.217-1.694,6.373,6.373,0,0,0-.217,1.694,5.335,5.335,0,0,0,1.536,3.87,4.975,4.975,0,0,0,2.86,1.514,4.975,4.975,0,0,1-2.86-1.514,5.335,5.335,0,0,1-1.536-3.87m8.789,3.728a4.73,4.73,0,0,1-3.563,1.639,4.907,4.907,0,0,1-3.632-1.553,5.279,5.279,0,0,1-1.513-3.814,5.58,5.58,0,0,1,1.52-3.977,4.9,4.9,0,0,1,3.675-1.6,4.736,4.736,0,0,1,3.509,1.6,5.293,5.293,0,0,1,1.526,3.752,5.635,5.635,0,0,1-1.52,3.952M99.121,9.5c.113-.144.233-.284.362-.419.064-.068.129-.133.2-.2-.066.063-.131.129-.2.2-.129.136-.249.276-.362.419m.792-.829a5.318,5.318,0,0,1,.526-.4,5.318,5.318,0,0,0-.526.4m1.042-.7a4.59,4.59,0,0,1,.467-.2,4.59,4.59,0,0,0-.467.2m2.211,10.591a4.6,4.6,0,0,0,1.946-.416,4.6,4.6,0,0,1-1.946.416,5.518,5.518,0,0,1-.756-.052,5.518,5.518,0,0,0,.756.052m2.086,1.314-.1.03.1-.03m.718-.275q-.156.071-.315.133.159-.062.315-.133m1.974-4.537q.1-.251.169-.512-.073.261-.169.512t-.217.49q.12-.24.217-.49m.336-6.748h0a6.285,6.285,0,0,0-.718-.827,6.285,6.285,0,0,1,.718.827M106.9,6.939a5.769,5.769,0,0,1,.634.52,5.769,5.769,0,0,0-.634-.52m-.475-.308c-.1-.059-.209-.116-.317-.169l-.085-.041.085.041c.108.054.214.11.317.169m-.692-.339c-.08-.033-.161-.065-.242-.094.081.029.162.061.242.094m-9.6,6.745A7.179,7.179,0,0,1,97.338,8.9a7.179,7.179,0,0,0-1.205,4.136,7.454,7.454,0,0,0,.631,3.1,7.454,7.454,0,0,1-.631-3.1m3.337,6.179a6.654,6.654,0,0,1-.561-.387,6.654,6.654,0,0,0,.561.387,6.4,6.4,0,0,0,.592.322,6.4,6.4,0,0,1-.592-.322m.9.459a6.576,6.576,0,0,0,.639.226,6.576,6.576,0,0,1-.639-.226m1.311.387a7.745,7.745,0,0,0,1.436.129,7.745,7.745,0,0,1-1.436-.129m5.128-.925a5.737,5.737,0,0,0,1.471-1.377,5.737,5.737,0,0,1-1.471,1.377m3.23,5.129h0v0Z" transform="translate(-25.294 -1.512)" fill="#fff"/><path d="M128.372,6.145h-.08v6.824a15.9,15.9,0,0,1-.135,2.522,3.919,3.919,0,0,1-.436,1.239,3.637,3.637,0,0,1-1.4,1.36,4.238,4.238,0,0,1-2.03.47,3.471,3.471,0,0,1-2.908-1.134,6.583,6.583,0,0,1-.887-3.921V6.145H118.61V13.38c0,2.485.443,4.29,1.317,5.367a5.259,5.259,0,0,0,4.309,1.631,5.893,5.893,0,0,0,2.4-.443,4.852,4.852,0,0,0,1.658-1.263v1.344H130.2V6.145h-1.825Zm-.019,8.022v0m-.117,1.339c.017-.091.032-.194.046-.311.009-.078.018-.161.026-.25-.008.088-.017.172-.026.25-.014.116-.029.22-.046.311a4.468,4.468,0,0,1-.208.759,4.468,4.468,0,0,0,.208-.759m-2.247,2.824q-.108.044-.221.082.113-.038.221-.082m-4.675-.855a2.625,2.625,0,0,0,.493.485,2.625,2.625,0,0,1-.493-.485,6.628,6.628,0,0,1-.9-3.971v0a6.628,6.628,0,0,0,.9,3.971m.773.67c-.069-.04-.135-.083-.2-.127.064.044.13.087.2.127m2.148,2.153h0a7.082,7.082,0,0,0,1.285-.109,7.082,7.082,0,0,1-1.285.109m1.574-.17a4.6,4.6,0,0,0,.791-.266l.016-.008-.016.008a4.6,4.6,0,0,1-.791.266m1.118-.432a4.214,4.214,0,0,0,.38-.236,4.214,4.214,0,0,1-.38.236m1.036-.79a5.941,5.941,0,0,0,.408-.452,5.941,5.941,0,0,1-.408.452" transform="translate(-31.234 -1.618)" fill="#fff"/><path d="M149.224,6.038h-.08V8.071a5.867,5.867,0,0,0-2.064-1.683,6.593,6.593,0,0,0-2.92-.65,6.964,6.964,0,0,0-5.152,2.093,7.156,7.156,0,0,0-2.06,5.2,7.146,7.146,0,0,0,2.016,5.147,6.753,6.753,0,0,0,5.047,2.088,6.93,6.93,0,0,0,3.038-.681,5.717,5.717,0,0,0,2.1-1.683v2h1.869V6.038h-1.789Zm0,.08v0Zm-.385,8.942a6.013,6.013,0,0,0,.385-2.173,5.377,5.377,0,0,0-.387-2.043,5.305,5.305,0,0,0-.483-.917,5.305,5.305,0,0,1,.483.917,5.377,5.377,0,0,1,.387,2.043,6.013,6.013,0,0,1-.385,2.173m-9.188-5.032a5.805,5.805,0,0,0-.815,3.084,5.775,5.775,0,0,0,.294,1.869,5.084,5.084,0,0,0,.192.484,5.084,5.084,0,0,1-.192-.484,5.775,5.775,0,0,1-.294-1.869,5.805,5.805,0,0,1,.815-3.084m8.026-.949a6.27,6.27,0,0,1,.525.629,6.189,6.189,0,0,0-.525-.629,5.79,5.79,0,0,0-1.1-.91,5.79,5.79,0,0,1,1.1.91m-.052,7.76a4.732,4.732,0,0,1-3.564,1.638,4.909,4.909,0,0,1-3.632-1.552,5.28,5.28,0,0,1-1.513-3.814,5.582,5.582,0,0,1,1.52-3.977,4.9,4.9,0,0,1,3.675-1.6,4.737,4.737,0,0,1,3.508,1.6,5.3,5.3,0,0,1,1.526,3.753,5.634,5.634,0,0,1-1.52,3.952m-1.839-9.076a4.619,4.619,0,0,1,.566.27,4.619,4.619,0,0,0-.566-.27M141.22,6.4a6.582,6.582,0,0,1,.877-.309,6.582,6.582,0,0,0-.877.309m.251,11.464a4.8,4.8,0,0,0,1.8.642,5.38,5.38,0,0,0,.786.056,4.671,4.671,0,0,0,1.484-.234c.124-.041.245-.089.365-.141-.12.052-.241.1-.365.141a4.671,4.671,0,0,1-1.484.234,5.38,5.38,0,0,1-.786-.056,4.8,4.8,0,0,1-1.8-.642m-.911-.693c.08.075.161.146.243.215-.083-.069-.164-.14-.243-.215m.561.463c.042.031.085.06.128.089-.043-.029-.086-.058-.128-.089m7.38.872a5.6,5.6,0,0,1-.731.58,5.6,5.6,0,0,0,.731-.58M147.365,6.631c-.1-.06-.212-.116-.321-.169a6.091,6.091,0,0,0-.729-.3,6.091,6.091,0,0,1,.729.3c.109.053.217.11.321.169M145.8,6.012l.09.023-.09-.023m-5.473.853c-.159.1-.315.206-.467.32.152-.115.308-.22.467-.32m-2.1,2.035a6.763,6.763,0,0,0-.561.992,6.763,6.763,0,0,1,.561-.992m-.575,7.238a6.624,6.624,0,0,0,.312.606,6.624,6.624,0,0,1-.312-.606m9.356,3.38a6.815,6.815,0,0,1-3,.673,6.815,6.815,0,0,0,3-.673,6.318,6.318,0,0,0,.579-.32,6.318,6.318,0,0,1-.579.32m1.517-1.041c.086-.083.169-.168.249-.256-.08.088-.163.173-.249.256m.694,1.353v0Zm1.708,0h0v0Z" transform="translate(-36.063 -1.512)" fill="#fff"/><path d="M164.526,5.954V5.872h-.082a3.9,3.9,0,0,0-1.813.459,4.281,4.281,0,0,0-1.287,1.16V6.073h-1.807V19.944h1.931V11.588a4.168,4.168,0,0,1,.693-2.684,3.3,3.3,0,0,1,2.305-.963l.073-.007V7.861Zm-.08,0,0,.636Zm-1.777.449q.1-.053.194-.1-.1.046-.194.1a4.249,4.249,0,0,0-1.3,1.2,4.249,4.249,0,0,1,1.3-1.2m-1.4,1.333h0v0Zm-1.647-1.583h0v0Zm3.738,1.918q-.162.051-.309.113a2.986,2.986,0,0,0-.28.135,2.333,2.333,0,0,0-.666.533,4.223,4.223,0,0,0-.712,2.736v0a4.223,4.223,0,0,1,.712-2.736,2.333,2.333,0,0,1,.666-.533,2.986,2.986,0,0,1,.28-.135q.147-.062.309-.113a4.561,4.561,0,0,1,.519-.129,4.561,4.561,0,0,0-.519.129" transform="translate(-42.012 -1.547)" fill="#fff"/><path d="M174.4,5.637a7.016,7.016,0,0,0-5.2,2.069,7.175,7.175,0,0,0-2.035,5.23,7.227,7.227,0,0,0,2.078,5.179,6.819,6.819,0,0,0,5.084,2.155,6.718,6.718,0,0,0,3.991-1.232,7.969,7.969,0,0,0,2.67-3.529l.046-.112h-2.152l-.021.046a5.205,5.205,0,0,1-1.866,2.2,4.879,4.879,0,0,1-2.718.788,4.981,4.981,0,0,1-3.56-1.358,5.246,5.246,0,0,1-1.579-3.479h12.289v-.209a8.015,8.015,0,0,0-1.959-5.588A6.571,6.571,0,0,0,174.4,5.637m-5.289,8.417c-.027-.178-.047-.359-.061-.546.014.186.034.368.061.546m8.774,5.171-.147.087.147-.087m1.428-7.331H169.2a5.327,5.327,0,0,1,1.643-3.216,4.771,4.771,0,0,1,3.3-1.221,5.013,5.013,0,0,1,3.4,1.136,6.017,6.017,0,0,1,1.772,3.3m-10.214.081h0c.013-.088.027-.175.043-.261-.015.085-.03.172-.043.261m10.314,0a6.692,6.692,0,0,0-1.327-2.939A6.692,6.692,0,0,1,179.419,11.975ZM177.2,8.22c.041.028.081.056.121.085-.04-.029-.08-.057-.121-.085m-3.051-.845a5.54,5.54,0,0,0-1.179.122,6.068,6.068,0,0,1,3.726.425,5.594,5.594,0,0,0-2.547-.547m-2.819.821a4.887,4.887,0,0,0-.536.422c-.057.052-.113.1-.168.158.055-.054.11-.107.168-.158a4.887,4.887,0,0,1,.536-.422c.1-.066.2-.127.3-.186-.1.058-.2.119-.3.186m.479-.283c.1-.052.2-.1.3-.144-.1.044-.2.093-.3.144m-2.478,3.059c.031-.1.064-.2.1-.3-.035.1-.069.194-.1.3m.786-1.6c.038-.054.079-.106.12-.158-.041.052-.082.1-.12.158m4.218,10.816h0a6.844,6.844,0,0,0,2.827-.576c.129-.057.256-.121.382-.188-.126.067-.253.13-.382.188a6.844,6.844,0,0,1-2.827.576m4.933-2.083a7.538,7.538,0,0,0,.684-.841,7.538,7.538,0,0,1-.684.841m1.274-1.814c-.135.26-.28.507-.433.742.153-.235.3-.482.433-.742s.262-.531.38-.815q-.177.427-.38.815m-1.6-.815h0q-.1.217-.217.418.115-.2.217-.418m-8.271,1.649a4.871,4.871,0,0,0,1.588,1.019,4.871,4.871,0,0,1-1.588-1.019,4.962,4.962,0,0,1-1.021-1.372c-.063-.124-.12-.253-.173-.385.053.131.111.26.173.385a4.962,4.962,0,0,0,1.021,1.372m2.391,1.257-.119-.027.119.027m8.294-4.875h0v-.129a7.9,7.9,0,0,0-1.937-5.534A6.466,6.466,0,0,0,174.4,5.718a7.061,7.061,0,0,0-4.351,1.35,7.061,7.061,0,0,1,4.351-1.35,6.466,6.466,0,0,1,5.009,2.127,7.9,7.9,0,0,1,1.937,5.534Z" transform="translate(-44.021 -1.485)" fill="#fff"/><path d="M196.047,13.722a4.2,4.2,0,0,0-1.912-1.487c-.218-.094-.648-.237-1.277-.427a6.1,6.1,0,0,1-1.423-.589,2.11,2.11,0,0,1-.754-.726,2,2,0,0,1-.225-.989A1.9,1.9,0,0,1,191,8.121a1.847,1.847,0,0,1,1.367-.556,2,2,0,0,1,1.45.513,2.157,2.157,0,0,1,.589,1.456l0,.075h2.028l0-.084a4.029,4.029,0,0,0-1.126-2.834,3.9,3.9,0,0,0-2.829-1.02,3.974,3.974,0,0,0-2.86,1.144A3.751,3.751,0,0,0,188.439,9.6a3.565,3.565,0,0,0,.712,2.319,7.1,7.1,0,0,0,2.995,1.683,4.952,4.952,0,0,1,1.917,1.1,2.208,2.208,0,0,1,.518,1.529,2.091,2.091,0,0,1-.656,1.575,2.316,2.316,0,0,1-1.654.626,2.234,2.234,0,0,1-1.747-.814,3.061,3.061,0,0,1-.71-2.072v-.13h-1.958l0,.083a5.165,5.165,0,0,0,1.246,3.462,4.086,4.086,0,0,0,3.143,1.291,4.441,4.441,0,0,0,3.163-1.181,3.955,3.955,0,0,0,1.251-2.989,4.226,4.226,0,0,0-.614-2.362M194.1,12.309c.107.046.209.094.309.143-.1-.049-.2-.1-.309-.143-.053-.023-.12-.049-.2-.078.08.029.147.055.2.078m1.222.732a4.148,4.148,0,0,0-.433-.317,4.148,4.148,0,0,1,.433.317m-3.933-1.753a6.146,6.146,0,0,0,1.443.6q.533.16.867.275-.335-.114-.867-.275a6.146,6.146,0,0,1-1.443-.6,2.8,2.8,0,0,1-.457-.348,2.8,2.8,0,0,0,.457.348m-.78-.754a1.737,1.737,0,0,0,.312.4,1.737,1.737,0,0,1-.312-.4c-.02-.035-.038-.071-.055-.108.017.037.035.073.055.108m.334-2.468a1.972,1.972,0,0,0-.569,1.439,2.687,2.687,0,0,0,.015.293,2.687,2.687,0,0,1-.015-.293,1.972,1.972,0,0,1,.569-1.439,1.872,1.872,0,0,1,1.015-.544,1.872,1.872,0,0,0-1.015.544m1.215-.571c.068-.006.138-.009.208-.009-.071,0-.141,0-.208.009m1.335.25a1.686,1.686,0,0,1,.254.168,1.686,1.686,0,0,0-.254-.168m.93,1.326c.017.079.03.161.041.246-.011-.085-.024-.167-.041-.246m.062.459h0Zm-2.006-3.777a3.814,3.814,0,0,1,2.774,1,3.244,3.244,0,0,1,.242.262c.054.064.1.132.152.2-.049-.069-.1-.136-.152-.2a3.244,3.244,0,0,0-.242-.262,3.814,3.814,0,0,0-2.774-1,4.289,4.289,0,0,0-.981.11,4.289,4.289,0,0,1,.981-.11m-1.942.48c.08-.044.161-.086.244-.124-.083.038-.164.08-.244.124m-1.285,1.12a3.722,3.722,0,0,0-.283.432,3.722,3.722,0,0,1,.283-.432m-.315,4.114c-.021-.038-.041-.077-.061-.116.02.04.04.078.061.116m-.053-3.517c-.035.071-.066.144-.1.217.03-.073.061-.146.1-.217m3.554,5.684a6.541,6.541,0,0,1,1.156.58,3.364,3.364,0,0,1,.306.226,3.364,3.364,0,0,0-.306-.226,6.541,6.541,0,0,0-1.156-.58m2.221,2.6a2.384,2.384,0,0,0-.385-1.384,2.618,2.618,0,0,1,.254,2.182,2.366,2.366,0,0,0,.13-.8m-1.229,2.022-.011.006.011-.006m-3.216-.913a2.9,2.9,0,0,0,.248.331,2.366,2.366,0,0,0,1.084.734,2.366,2.366,0,0,1-1.084-.734,2.9,2.9,0,0,1-.248-.331c-.049-.077-.1-.156-.137-.238.042.082.088.161.137.238m-.482-1.844v.05a3.669,3.669,0,0,0,.14,1.039q.04.136.091.265-.051-.129-.091-.265a3.669,3.669,0,0,1-.14-1.039Zm-1.4,2.075c.035.089.071.177.112.262-.041-.085-.077-.172-.112-.262m2.3,2.328c.05.018.1.036.152.053-.052-.017-.1-.035-.152-.053m4.721-.888a4.344,4.344,0,0,1-3.108,1.159,4.344,4.344,0,0,0,3.108-1.159c.05-.048.1-.1.146-.145-.047.049-.1.1-.146.145m.148-.147a3.862,3.862,0,0,0,1.077-2.782,4.971,4.971,0,0,0-.19-1.427,4.971,4.971,0,0,1,.19,1.427,3.862,3.862,0,0,1-1.077,2.782" transform="translate(-49.469 -1.494)" fill="#fff"/><rect width="5.011" height="4.93" fill="#f48120"/><rect width="5.011" height="4.93" transform="translate(6.993)" fill="#f48120"/><rect width="5.011" height="4.93" transform="translate(13.986)" fill="#f48120"/><rect width="5.011" height="4.93" transform="translate(0 6.983)" fill="#f48120"/><rect width="5.011" height="4.93" transform="translate(13.986 6.983)" fill="#f48120"/><rect width="5.011" height="4.93" transform="translate(0 13.967)" fill="#f48120"/><rect width="5.011" height="4.93" transform="translate(6.993 13.967)" fill="#f48120"/><rect width="5.011" height="4.93" transform="translate(13.986 13.967)" fill="#f48120"/><rect width="5.011" height="4.93" transform="translate(6.993 6.983)" fill="#fff"/></g></g></svg>